<svg xmlns="http://www.w3.org/2000/svg" height="78.569" width="300" viewBox="0 0 300 78.569" xml:space="preserve" y="0" x="0" id="Layer_1" version="1.1"><style id="style337" type="text/css">.st1{fill:#ffc629}.st8{fill:#3f6090}.st9{fill:#1d184b;stroke:#1d184b;stroke-width:.5;stroke-miterlimit:10}.st10{fill:#0a1837}</style><g transform="matrix(.51352 0 0 .51352 -2.26 -44.574)" id="g343"><path id="path341" d="M575.6 120.1c0-3.6 2.9-6.5 6.5-6.5s6.5 2.9 6.5 6.5-2.9 6.5-6.5 6.5c-3.5-.1-6.5-2.9-6.5-6.5zm1.1 0c0 3 2.4 5.4 5.4 5.4 3 0 5.4-2.4 5.4-5.4 0-3-2.4-5.4-5.4-5.4-3 0-5.4 2.4-5.4 5.4zm5.3.8h-1.2v2.9h-1.1v-7.4h3c1.4 0 2.5.9 2.5 2.3 0 1.6-1.5 2.2-1.9 2.2l2 3h-1.4zm-1.2-3.5v2.6h1.9c.8 0 1.3-.5 1.3-1.2 0-.8-.5-1.3-1.3-1.3z" class="st8"/></g><path id="rect345" class="st8" stroke-width=".514" d="M148.203 3.441h3.389v61.725h-3.389z"/><g transform="matrix(.51352 0 0 .51352 -2.26 -44.574)" id="g355"><path id="path347" d="M259.1 200c0 11-9 20-20.1 20H24.5c-11.1 0-20.1-8.9-20.1-20v-93.2c0-11 9-20 20.1-20H239c11.1 0 20.1 8.9 20.1 20z" fill="#fff"/><path id="path349" d="M239 93.5H24.5c-7.4 0-13.4 6-13.4 13.3h241.3c0-7.4-6-13.3-13.4-13.3" class="st1"/><path id="path351" d="M24.4 213.2h214.5c7.4 0 13.4-6 13.4-13.3H11c0 7.4 6 13.3 13.4 13.3" class="st1"/><path id="path353" d="M71.5 153.4c0-11-9-20-20.1-20-11.1 0-20.1 8.9-20.1 20 0 11 9 20 20.1 20 11.1 0 20.1-8.9 20.1-20m160.8 0c0-11-9-20-20.1-20-11.1 0-20.1 8.9-20.1 20 0 11 9 20 20.1 20 11.1 0 20.1-8.9 20.1-20m13.4 0c0 18.4-15 33.3-33.5 33.3s-33.5-14.9-33.5-33.3 15-33.3 33.5-33.3 33.5 14.9 33.5 33.3m-160.8 0c0 18.4-15 33.3-33.5 33.3s-33.5-14.9-33.5-33.3 15-33.3 33.5-33.3 33.5 14.9 33.5 33.3m167.6 39.9v-79.9h-45.9c-5 0-15.2 1-25.4 12.8L160 153.9l17.4 22.1c2.3 2.9 1.8 7.1-1.2 9.3-2.9 2.3-7.1 1.8-9.4-1.1l-15.3-19.4-11.5 14.7-.1.1-3.6 4.6c-.9 1.2-2.2 2-3.5 2.3-2 .5-4.1.2-5.9-1.2-1.9-1.5-2.8-3.7-2.5-6 .1-1.2.6-2.4 1.4-3.4l6.5-8.2 10.8-13.8-7.2-9.3 8.3-11 7.4 9.5 18.2-23c.5-.6 4.1-5.8 7.9-6.7H11.1v79.9h47.5c5.4-.3 14.5-2.3 23.6-12.9l21.2-27.6L86 130.7c-2.3-2.9-1.8-7.1 1.2-9.3 2.9-2.3 7.1-1.8 9.4 1.1l15.3 19.4 11.5-14.7.1-.2 3.6-4.6c.9-1.2 2.2-2 3.5-2.3 2-.5 4.1-.2 5.9 1.2 1.9 1.5 2.8 3.7 2.5 6-.1 1.2-.6 2.4-1.4 3.4l-6.5 8.2-10.9 13.8 7.4 9.3-8.3 11-7.5-9.6-18.2 23c-.5.7-4.3 6.2-8.2 6.7h167.1z" fill="#e1251b"/></g><g transform="matrix(.51352 0 0 .51352 -2.26 -44.574)" id="g363"><path id="path357" d="M355.4 113.5h36.2c38.1 0 28.1 28.4 28.1 28.4s-6 29.8-44.8 29.8h-8.7l-6 21.7h-26.9zm23.3 39.1c12.1 0 14-9 14-9s3.3-8.8-8.9-8.8h-7.4l-5 17.8z" class="st8"/><path id="path359" d="M451 113.5h26.5l11.4 79.9h-29l-1.3-10.7h-28l-7.1 10.7H395zm6.3 50.4l-1.9-19.3-12.7 19.3z" class="st8"/><path id="polygon361" class="st8" d="M574.9 113.5l-44.5 51.2-8 28.7h-26.9l7.9-28.3-16-51.6h30.1l6.5 26.2 21.2-26.2z"/></g><g transform="matrix(.51352 0 0 .51352 -2.26 -44.574)" id="g379"><path id="path365" d="M339.6 216.2c0 2.3-1.7 3.7-4.4 3.7h-2.1v2.8h-2.4v-10.2h4.4c2.8 0 4.5 1.4 4.5 3.7zm-2.4 0c0-1.1-.7-1.8-2.2-1.8h-1.9v3.5h1.9c1.5 0 2.2-.6 2.2-1.7z" class="st9"/><path id="path367" d="M340.8 217.6c0-3 2.4-5.3 5.6-5.3 3.2 0 5.6 2.2 5.6 5.3 0 3.1-2.4 5.3-5.6 5.3-3.2-.1-5.6-2.3-5.6-5.3zm8.8 0c0-1.9-1.4-3.3-3.2-3.3-1.8 0-3.2 1.3-3.2 3.3 0 1.9 1.4 3.3 3.2 3.3 1.8 0 3.2-1.4 3.2-3.3z" class="st9"/><path id="path369" d="M368.8 212.5l-3.3 10.2H363l-2.2-6.9-2.3 6.9H356l-3.3-10.2h2.4l2.3 7.2 2.4-7.2h2.2l2.3 7.2 2.4-7.2z" class="st9"/><path id="path371" d="M378 220.8v1.9h-7.9v-10.2h7.7v1.9h-5.4v2.2h4.7v1.8h-4.7v2.4z" class="st9"/><path id="path373" d="M386.3 222.6l-2-2.8h-2.2v2.8h-2.4v-10.2h4.4c2.7 0 4.4 1.4 4.4 3.7 0 1.5-.8 2.6-2.1 3.2l2.3 3.3zm-2.2-8.2h-1.9v3.5h1.9c1.4 0 2.2-.7 2.2-1.8s-.7-1.7-2.2-1.7z" class="st9"/><path id="path375" d="M398.4 220.8v1.9h-7.9v-10.2h7.7v1.9h-5.4v2.2h4.7v1.8h-4.7v2.4z" class="st9"/><path id="path377" d="M400.3 212.5h4.6c3.3 0 5.6 2 5.6 5.1 0 3.1-2.3 5.1-5.6 5.1h-4.6zm4.5 8.2c2 0 3.3-1.2 3.3-3.2 0-1.9-1.3-3.2-3.3-3.2h-2.2v6.3z" class="st9"/></g><g transform="matrix(.51352 0 0 .51352 -2.26 -44.574)" id="g385"><path id="path381" d="M400.7 235.8c0 1.8-1.4 2.8-4.1 2.8h-5.3v-10.2h5c2.5 0 3.9 1.1 3.9 2.6 0 1-.5 1.8-1.4 2.2 1.2.5 1.9 1.3 1.9 2.6zm-7-5.6v2.4h2.3c1.1 0 1.8-.4 1.8-1.2 0-.8-.6-1.2-1.8-1.2zm4.6 5.4c0-.9-.7-1.3-1.9-1.3h-2.7v2.5h2.7c1.3 0 1.9-.4 1.9-1.2z" class="st9"/><path id="path383" d="M407.2 235v3.6h-2.4V235l-3.9-6.5h2.5l2.7 4.5 2.7-4.5h2.3z" class="st9"/></g><g transform="matrix(.51352 0 0 .51352 -2.26 -44.574)" id="Artwork_8_2_"><g id="g407"><g id="g405"><path id="path387" d="M504.4 215.7c-2 0-3.4.9-4.2 2h-.3v-1.6h-4.8v17.3h4.8v-10.1c0-1.7 1.2-3.1 3-3.1 1.7 0 2.9 1.3 2.9 3v10.1h4.8v-11.6c-.1-3.3-2.5-6-6.2-6" class="st10"/><path id="path389" d="M484.4 215.7c-5.4 0-9.2 3.9-9.2 9.1 0 5.1 3.8 9.1 9.2 9.1 5.4 0 9.2-3.9 9.2-9.1 0-5.1-3.8-9.1-9.2-9.1m0 13.6c-2.6 0-4.4-1.9-4.4-4.5s1.8-4.5 4.4-4.5c2.6 0 4.3 1.9 4.3 4.5 0 2.5-1.7 4.5-4.3 4.5" class="st10"/><path id="path391" d="M465.9 220.2c2 0 3.6 1.2 4.1 3.1l4.4-1.1c-1.1-4.3-4.5-6.6-8.7-6.6-5.5 0-9 4-9 9.1 0 5 3.6 9.1 9 9.1 4.2 0 7.6-2.2 8.7-6.5l-4.5-1.1c-.5 1.9-2.1 3-4.1 3-2.6 0-4.3-2-4.3-4.5.1-2.5 1.8-4.5 4.4-4.5" class="st10"/><path id="path393" d="M578.1 229.4c-.5 0-.8-.3-.8-.7v-12.6h-4.8v1.6h-.4c-1-1.2-2.6-2-4.8-2-4.4 0-8 3.8-8 9.1 0 5.2 3.6 9.1 8 9.1 2.5 0 3.9-1 4.8-2.3h.4c0 1 .8 1.8 1.9 1.8h6.2v-4zm-9.7-.1c-2.3 0-4.2-1.7-4.2-4.5 0-2.7 1.8-4.5 4.1-4.5s4.2 1.6 4.2 4.5c0 2.4-1.6 4.5-4.1 4.5" class="st10"/><path id="path395" d="M553.9 211.4h-4.5v4.7h-8.8l-3.7 5.8h-1.4v-13.2h-4.8v24.7h4.8v-7.1h1.5l3.9 7.1h5.7l-5.6-9.2v-.4l2.4-3.5h5.7v7.7c0 3.8 1.9 5.4 5.4 5.4h3.8v-4.3H555c-.8 0-1.1-.3-1.1-1.1v-7.7h4.6v-4.2h-4.6z" class="st10"/><path id="path397" d="M520.5 215.7c-4.8 0-8.8 3.7-8.8 9.1 0 5.2 3.7 9.1 9 9.1 3.4 0 6.7-1.4 8-5.3l-4.3-1c-.7 1.4-2.2 2.1-3.8 2.1-2.3 0-3.9-1.4-4-3.6h12.6v-1.2c0-5.3-3.4-9.2-8.7-9.2m-3.9 7.1c.2-1.5 1.6-3.1 3.9-3.1 2 0 3.6 1.4 3.8 3.1z" class="st10"/><path id="path399" d="M448.8 228.6s.1-2.4-1.6-2.4c-1.7 0-3.1 3.3-8 7.1-4.3 3.3-6.4 4.3-9.9 5.7 0 0 1.2.8 10.3.8 6.1 0 9.2-.1 9.2-11.2" class="st10"/><path id="path401" d="M448.8 218.9s.1 2.4-1.6 2.4c-1.7 0-3.1-3.3-8-7.1-4.3-3.3-6.4-4.3-9.9-5.7 0 0 1.2-.8 10.3-.8 6.1 0 9.2.1 9.2 11.2" fill="#e40695"/><path id="path403" d="M434.2 215.6c-3.2-2-5.2-3-7.7-3.9-1.8-.4-3 .4-3.6.9-2.9 2.9-4.6 6.8-4.7 11.2 0 4.4 1.8 8.3 4.7 11.2.6.5 1.8 1.3 3.6.9 2.5-.9 4.5-1.9 7.7-3.9-.8-2.9-1-5.7-1-8.2-.1-2.5.2-5.3 1-8.2" fill="#02a8ad"/></g></g></g></svg>
